Doctor Parnassus 1080p BluRay.mkv
*********************************

TiTLE......  The Imaginarium of Doctor Parnassus
YEAR.......  2009
GENRE......  Adventure | Fantasy | Mystery 
iMDB RATE..  User Rating: 7.3/10 (20,359 votes)
iMDB URL...  http://www.imdb.com/title/tt1054606/
Awards 2010: Nominated for 2 Oscars. Another 2 wins & 10 nominations 
********************************************************************

Video
Duration                         : 2h 2mn
Bit rate                         : 6 578 Kbps
Width                            : 1 920 pixels
Height                           : 1 072 pixels
Display aspect ratio             : 16:9
Frame rate                       : 23.976 fps
Stream size                      : 5.62 GiB (80%)

Audio
Format                           : DTS
Format/Info                      : Digital Theater Systems
Bit rate                         : 1 510 Kbps
Channel(s)                       : 6 channels
Channel positions                : Front: L C R, Surround: L R, LFE
Sampling rate                    : 48.0 KHz
Resolution                       : 24 bits
Stream size                      : 1.29 GiB (18%)
Language                         : English

Subtitles English, French, Spanish
**********************************

